<svg xmlns="http://www.w3.org/2000/svg" width="158.42" height="34" viewBox="0 0 158.42 34"><g transform="translate(-544 -445)"><path d="M10,0H71A10,10,0,0,1,81,10V24A10,10,0,0,1,71,34H10A10,10,0,0,1,0,24V10A10,10,0,0,1,10,0Z" transform="translate(544 445)" fill="#fb4399"/><path d="M6.754.132a9.893,9.893,0,0,1-3.289-.55A6.044,6.044,0,0,1,1.034-1.87l.638-1.254A6.109,6.109,0,0,0,3.894-1.771a8.119,8.119,0,0,0,2.86.517,5.228,5.228,0,0,0,3.1-.759A2.338,2.338,0,0,0,10.89-3.982a1.97,1.97,0,0,0-.561-1.474A3.787,3.787,0,0,0,8.954-6.3a22.237,22.237,0,0,0-2.266-.649A23.807,23.807,0,0,1,3.916-7.8,4.551,4.551,0,0,1,2.145-9.042a3.3,3.3,0,0,1-.737-2.266,3.841,3.841,0,0,1,.616-2.123A4.219,4.219,0,0,1,3.916-14.96a7.745,7.745,0,0,1,3.168-.572,9.326,9.326,0,0,1,2.585.363,7.429,7.429,0,0,1,2.189,1l-.55,1.3a7.57,7.57,0,0,0-2.068-.957,7.719,7.719,0,0,0-2.156-.319,4.977,4.977,0,0,0-3.047.781,2.423,2.423,0,0,0-1.023,2.013,2.007,2.007,0,0,0,.561,1.485,3.675,3.675,0,0,0,1.408.858q.847.3,2.277.649A22.909,22.909,0,0,1,10-7.535,4.5,4.5,0,0,1,11.77-6.3,3.26,3.26,0,0,1,12.5-4.07a3.792,3.792,0,0,1-.627,2.123A4.214,4.214,0,0,1,9.944-.429,8.041,8.041,0,0,1,6.754.132ZM28.908-15.4V0H27.566l-9.9-12.5V0H16.038V-15.4H17.38L27.3-2.9V-15.4Zm21.01,0V0H48.356V-12.32L42.306-1.958h-.77l-6.05-10.3V0H33.924V-15.4h1.342L41.954-3.982,48.576-15.4Zm10.78,0a6.956,6.956,0,0,1,4.62,1.408A4.791,4.791,0,0,1,66.99-10.12a4.759,4.759,0,0,1-1.672,3.861,6.993,6.993,0,0,1-4.62,1.4H56.562V0H54.934V-15.4Zm-.044,9.108a5.361,5.361,0,0,0,3.5-1,3.464,3.464,0,0,0,1.21-2.827,3.514,3.514,0,0,0-1.21-2.871,5.361,5.361,0,0,0-3.5-1H56.562v7.7Z" transform="translate(550 470)" fill="#fff"/><path d="M31.276-19.6,24.78,0H20.916L16.072-14.5,11.144,0H7.252L.756-19.6h3.78L9.408-4.7l5.068-14.9h3.36L22.792-4.62,27.8-19.6ZM48.944-3.052V0h-14.7V-19.6H48.552v3.052H37.884v5.1h9.464v3H37.884v5.4Zm17.948-7.14a5.172,5.172,0,0,1,2.576,1.778A4.947,4.947,0,0,1,70.42-5.32a4.533,4.533,0,0,1-1.96,3.934A9.848,9.848,0,0,1,62.748,0H53V-19.6h9.184a9.018,9.018,0,0,1,5.348,1.358A4.363,4.363,0,0,1,69.412-14.5a4.909,4.909,0,0,1-.672,2.576A4.6,4.6,0,0,1,66.892-10.192ZM56.644-16.744v5.4H61.8a5.236,5.236,0,0,0,2.926-.686,2.26,2.26,0,0,0,1.022-2,2.286,2.286,0,0,0-1.022-2.03,5.236,5.236,0,0,0-2.926-.686Zm5.88,13.888q4.228,0,4.228-2.828T62.524-8.512h-5.88v5.656Z" transform="translate(632 472)" fill="#fb4399"/></g></svg>